<svg aria-hidden="true" style="fill: #fff; position: absolute; width: 0; height: 0; overflow: hidden;" version="1.1" xmlns="http://www.w3.org/2000/svg" xmlns:xlink="http://www.w3.org/1999/xlink">
<defs>
<symbol id="icon-octagon" viewBox="0 0 32 32">
<path d="M9.080 0.292c0.187-0.187 0.441-0.292 0.706-0.292h12.428c0.265 0 0.519 0.105 0.706 0.292l8.788 8.788c0.187 0.187 0.292 0.441 0.292 0.706v12.428c0 0.265-0.105 0.519-0.292 0.706l-8.788 8.788c-0.187 0.187-0.441 0.292-0.706 0.292h-12.428c-0.265 0-0.519-0.105-0.706-0.292l-8.788-8.788c-0.187-0.187-0.292-0.441-0.292-0.706v-12.428c0-0.265 0.105-0.519 0.292-0.706l8.788-8.788zM10.2 2l-8.2 8.2v11.6l8.2 8.2h11.6l8.2-8.2v-11.6l-8.2-8.2h-11.6z"></path>
<path d="M9.292 9.292c0.093-0.093 0.203-0.167 0.325-0.217s0.252-0.076 0.383-0.076c0.132 0 0.262 0.026 0.383 0.076s0.232 0.124 0.325 0.217l5.292 5.294 5.292-5.294c0.093-0.093 0.203-0.167 0.325-0.217s0.252-0.076 0.383-0.076c0.131 0 0.262 0.026 0.383 0.076s0.232 0.124 0.325 0.217c0.093 0.093 0.167 0.203 0.217 0.325s0.076 0.252 0.076 0.383-0.026 0.262-0.076 0.383c-0.050 0.121-0.124 0.232-0.217 0.325l-5.294 5.292 5.294 5.292c0.093 0.093 0.167 0.203 0.217 0.325s0.076 0.252 0.076 0.383-0.026 0.262-0.076 0.383c-0.050 0.121-0.124 0.232-0.217 0.325s-0.203 0.167-0.325 0.217c-0.121 0.050-0.252 0.076-0.383 0.076s-0.262-0.026-0.383-0.076c-0.121-0.050-0.232-0.124-0.325-0.217l-5.292-5.294-5.292 5.294c-0.093 0.093-0.203 0.167-0.325 0.217s-0.252 0.076-0.383 0.076-0.262-0.026-0.383-0.076c-0.121-0.050-0.232-0.124-0.325-0.217s-0.167-0.203-0.217-0.325c-0.050-0.121-0.076-0.252-0.076-0.383s0.026-0.262 0.076-0.383c0.050-0.121 0.124-0.232 0.217-0.325l5.294-5.292-5.294-5.292c-0.093-0.093-0.167-0.203-0.217-0.325s-0.076-0.252-0.076-0.383c0-0.132 0.026-0.262 0.076-0.383s0.124-0.232 0.217-0.325z"></path>
</symbol>
<symbol id="icon-bi_check2-circle" viewBox="0 0 32 32">
<path fill="#fff" style="fill: var(--color1, #fff)" d="M5 16c-0-1.931 0.508-3.828 1.473-5.501s2.354-3.061 4.026-4.027c1.672-0.966 3.569-1.474 5.5-1.474s3.828 0.508 5.5 1.474c0.23 0.13 0.501 0.165 0.756 0.096s0.472-0.236 0.604-0.465c0.132-0.229 0.168-0.5 0.101-0.756s-0.233-0.474-0.461-0.607c-2.478-1.431-5.359-2.004-8.197-1.63s-5.472 1.673-7.495 3.696-3.323 4.658-3.697 7.495c-0.374 2.837 0.199 5.718 1.63 8.197s3.639 4.415 6.283 5.511c2.644 1.095 5.575 1.288 8.339 0.547s5.207-2.372 6.949-4.642c1.742-2.27 2.687-5.052 2.687-7.913 0-0.265-0.105-0.519-0.293-0.707s-0.442-0.293-0.707-0.293-0.52 0.105-0.707 0.293c-0.188 0.188-0.293 0.442-0.293 0.707 0 2.917-1.159 5.715-3.222 7.778s-4.861 3.222-7.778 3.222-5.715-1.159-7.778-3.222c-2.063-2.063-3.222-4.861-3.222-7.778z"></path>
<path fill="#fff" style="fill: var(--color1, #fff)" d="M30.708 6.708c0.093-0.093 0.167-0.203 0.217-0.325s0.076-0.252 0.076-0.383-0.026-0.262-0.076-0.383c-0.050-0.121-0.124-0.232-0.217-0.325s-0.203-0.167-0.325-0.217-0.252-0.076-0.383-0.076c-0.131 0-0.262 0.026-0.383 0.076s-0.232 0.124-0.325 0.217l-13.292 13.294-5.292-5.294c-0.093-0.093-0.203-0.167-0.325-0.217s-0.252-0.076-0.383-0.076c-0.131 0-0.262 0.026-0.383 0.076s-0.232 0.124-0.325 0.217c-0.093 0.093-0.167 0.203-0.217 0.325s-0.076 0.252-0.076 0.383c0 0.131 0.026 0.262 0.076 0.383s0.124 0.232 0.217 0.325l6 6c0.093 0.093 0.203 0.167 0.325 0.217s0.252 0.076 0.383 0.076c0.132 0 0.262-0.026 0.383-0.076s0.232-0.124 0.325-0.217l14-14z"></path>
</symbol>
<symbol id="icon-OK" viewBox="0 0 66 32">
<path fill="#fff" style="fill: var(--color1, #fff)" d="M16.66 30.011c-2.179 0-4.201-0.354-6.065-1.063-1.838-0.709-3.44-1.707-4.805-2.993-1.339-1.287-2.389-2.796-3.151-4.529-0.735-1.733-1.103-3.623-1.103-5.671s0.368-3.938 1.103-5.671c0.761-1.733 1.825-3.243 3.19-4.529s2.967-2.284 4.805-2.993c1.838-0.709 3.833-1.063 5.986-1.063 2.179 0 4.175 0.354 5.986 1.063 1.838 0.709 3.426 1.707 4.766 2.993 1.365 1.287 2.429 2.796 3.19 4.529 0.761 1.707 1.142 3.597 1.142 5.671 0 2.048-0.381 3.952-1.142 5.711-0.761 1.733-1.825 3.243-3.19 4.529-1.339 1.26-2.928 2.245-4.766 2.954-1.812 0.709-3.794 1.063-5.947 1.063zM16.62 24.576c1.234 0 2.363-0.21 3.387-0.63 1.050-0.42 1.969-1.024 2.757-1.812s1.392-1.72 1.812-2.796c0.446-1.076 0.67-2.271 0.67-3.584s-0.223-2.508-0.67-3.584c-0.42-1.076-1.024-2.009-1.812-2.796-0.761-0.788-1.667-1.392-2.718-1.812s-2.192-0.63-3.426-0.63c-1.234 0-2.376 0.21-3.426 0.63-1.024 0.42-1.93 1.024-2.718 1.812s-1.405 1.72-1.851 2.796c-0.42 1.076-0.63 2.271-0.63 3.584 0 1.287 0.21 2.481 0.63 3.584 0.446 1.076 1.050 2.009 1.812 2.796 0.788 0.788 1.707 1.392 2.757 1.812s2.192 0.63 3.426 0.63zM43.441 23.237l-0.354-7.365 13.194-13.903h7.089l-11.894 12.8-3.545 3.781-4.49 4.687zM37.73 29.538v-27.569h6.341v27.569h-6.341zM56.596 29.538l-9.807-12.012 4.175-4.529 13.076 16.542h-7.444z"></path>
</symbol>
</defs>
</svg>
